HIERARCHY
ROOT Hips
{
	OFFSET 0.000000 0.000000 0.000000 
	CHANNELS 6 Xposition Yposition Zposition Yrotation Zrotation Xrotation 
	JOINT Lumbar
	{
		OFFSET 0.000000 0.000000 0.000000 
		CHANNELS 3 Zrotation Xrotation Yrotation
		JOINT Neck
		{
			OFFSET 0.000000 0.445665 0.000000 
			CHANNELS 3 Zrotation Xrotation Yrotation
			End Site
			{
				OFFSET 0.000000 0.227535 0.000000 
			}
		}
		JOINT RightShoulder
		{
			OFFSET 0.019635 0.377685 0.194865 
			CHANNELS 3 Zrotation Xrotation Yrotation
			JOINT RightElbow
			{
				OFFSET 0.000000 -0.243375 0.000000 
				CHANNELS 2 Zrotation Yrotation
				JOINT RightWrist
				{
					OFFSET 0.000000 -0.264825 0.000000 
					CHANNELS 2 Zrotation Xrotation
					End Site
					{
						OFFSET 0.006600 -0.176220 0.000990 
					}
				}
			}
		}
		JOINT LeftShoulder
		{
			OFFSET 0.019635 0.377685 -0.194865 
			CHANNELS 3 Zrotation Xrotation Yrotation
			JOINT LeftElbow
			{
				OFFSET 0.000000 -0.243375 0.000000 
				CHANNELS 2 Zrotation Yrotation
				JOINT LeftWrist
				{
					OFFSET 0.000000 -0.264825 0.000000 
					CHANNELS 2 Zrotation Xrotation
					End Site
					{
						OFFSET 0.006600 -0.176220 -0.000990 
					}
				}
			}
		}
	}
	JOINT RightHip
	{
		OFFSET 0.052140 -0.069960 0.075570 
		CHANNELS 3 Zrotation Xrotation Yrotation
		JOINT RightKnee
		{
			OFFSET 0.000000 -0.402270 0.000000 
			CHANNELS 1 Zrotation
			JOINT RightAnkle
			{
				OFFSET 0.000000 -0.404085 0.000000 
				CHANNELS 3 Zrotation Xrotation Yrotation
				End Site
				{
					OFFSET 0.204105 -0.089430 0.008415 
				}
			}
		}
	}
	JOINT LeftHip
	{
		OFFSET 0.052140 -0.069960 -0.075570 
		CHANNELS 3 Zrotation Xrotation Yrotation
		JOINT LeftKnee
		{
			OFFSET 0.000000 -0.402270 0.000000 
			CHANNELS 1 Zrotation
			JOINT LeftAnkle
			{
				OFFSET 0.000000 -0.404085 0.000000 
				CHANNELS 3 Zrotation Xrotation Yrotation
				End Site
				{
					OFFSET 0.204105 -0.089430 -0.008415 
				}
			}
		}
	}
}
MOTION
Frames: 19
Frame Time: 0.02
-0.00038 0.00046 0.00048 -170.16763 -27.1352 2.23706 43.3879 -0.8682 -9.02274 -14.03927 5.53433 -0.39393 -18.3619 -0.57142 -31.01973 23.9415 151.72638 22.49808 9.63017 -26.89809 3.34843 10.10444 31.39005 -154.79831 32.37621 -8.3709 26.53627 -1.21844 0.4125 -19.95861 -6.69892 -4.90399 -3.26107 32.50519 1.98362 2.32779 -23.9148 -6.49916 2.56912 1.95835
0.0003 0.00043 0.00011 -170.17244 -27.12769 2.2406 43.37506 -0.85056 -9.04937 -13.93379 5.52796 -0.39429 -18.48226 -0.97698 -29.67685 23.74224 146.13792 21.02194 8.78237 -26.8899 3.7516 8.94447 31.38746 -150.26184 30.86966 -7.68908 26.58313 -1.3354 -0.32666 -19.96883 -6.65043 -4.82967 -3.21251 32.55455 2.06484 2.65279 -23.92471 -6.50673 2.53218 1.9393
0.00098 0.00041 -0.00026 -170.17731 -27.12016 2.24413 43.36222 -0.83294 -9.07585 -13.82851 5.52163 -0.39464 -18.6023 -1.38152 -28.33746 23.54336 140.56702 19.55042 7.93725 -26.88159 4.15359 7.78782 31.38466 -145.73966 29.36794 -7.00942 26.62986 -1.45193 -1.0633 -19.97904 -6.60209 -4.75559 -3.16412 32.60375 2.14573 2.97627 -23.93459 -6.51427 2.49544 1.92034
0.00166 0.00038 -0.00063 -170.18211 -27.11267 2.24766 43.34942 -0.81535 -9.10239 -13.72334 5.51528 -0.395 -18.72231 -1.78589 -26.99854 23.34468 134.99558 18.07878 7.09203 -26.8734 4.55554 6.63132 31.38203 -141.21693 27.86598 -6.32966 26.67658 -1.56852 -1.80016 -19.98923 -6.55374 -4.6815 -3.11572 32.65296 2.22668 3.30017 -23.94447 -6.52181 2.45864 1.90135
0.00233 0.00035 -0.001 -170.18684 -27.10522 2.25123 43.33662 -0.79773 -9.12912 -13.61801 5.50888 -0.39535 -18.84257 -2.19114 -25.65661 23.1457 129.40719 16.60264 6.24423 -26.86538 4.95861 5.47176 31.37971 -136.68059 26.35936 -5.64786 26.72342 -1.68557 -2.5396 -19.99943 -6.50523 -4.60717 -3.06715 32.70232 2.308 3.62582 -23.95438 -6.52938 2.4216 1.88224
0.00301 0.00033 -0.00137 -170.19199 -27.0975 2.25467 43.32372 -0.78012 -9.15505 -13.51285 5.5027 -0.39571 -18.96212 -2.59415 -24.32276 22.94704 123.87377 15.14104 5.40483 -26.85645 5.35827 4.32139 31.37595 -132.18886 24.86814 -4.97279 26.76991 -1.80101 -3.27031 -20.00965 -6.45725 -4.53361 -3.01913 32.75119 2.38799 3.94476 -23.96422 -6.53685 2.38548 1.8636
0.00369 0.0003 -0.00174 -170.19627 -27.09034 2.25835 43.31103 -0.76253 -9.18256 -13.40747 5.49608 -0.39606 -19.08307 -3.00135 -22.97359 22.74799 118.23424 13.65143 4.5492 -26.84936 5.76446 3.15341 31.375 -127.61052 23.34705 -4.28463 26.81705 -1.91955 -4.01779 -20.01981 -6.40827 -4.45859 -2.97005 32.80099 2.47052 4.27672 -23.97417 -6.5445 2.34757 1.84404
0.00437 0.00027 -0.00211 -170.20138 -27.08267 2.2618 43.29815 -0.7449 -9.20861 -13.30231 5.48988 -0.39642 -19.20256 -3.40446 -21.63954 22.54922 112.69547 12.18833 3.709 -26.84061 6.16442 2.00236 31.3716 -123.11533 21.85448 -3.6091 26.86361 -2.03523 -4.74979 -20.03004 -6.3602 -4.38492 -2.92196 32.84994 2.55078 4.59689 -23.98403 -6.552 2.31128 1.82531
0.00504 0.00025 -0.00248 -170.20743 -27.07434 2.26501 43.28503 -0.72727 -9.2329 -13.19728 5.48415 -0.39677 -19.32098 -3.80365 -20.31935 22.35099 107.26608 10.75432 2.8855 -26.82965 6.55775 0.86876 31.36461 -118.70693 20.3923 -2.94649 26.90942 -2.14749 -5.46318 -20.04032 -6.31324 -4.31283 -2.87504 32.89783 2.62804 4.90184 -23.99375 -6.55929 2.27709 1.80769
0.00573 0.00021 -0.00284 -170.20785 -27.06971 2.26974 43.27325 -0.70979 -9.2674 -13.09105 5.47559 -0.39712 -19.44771 -4.22866 -18.90545 22.15024 101.16576 9.14291 1.95939 -26.83083 6.99223 -0.37506 31.37647 -113.75437 18.74181 -2.20195 26.95942 -2.27966 -6.28459 -20.0502 -6.25989 -4.23145 -2.82128 32.95178 2.72187 5.29194 -24.0042 -6.56769 2.23119 1.78394
0.00639 0.0002 -0.00322 -170.22029 -27.05733 2.27118 43.25867 -0.69192 -9.2803 -12.98767 5.47304 -0.39749 -19.55553 -4.59704 -17.69836 21.95448 96.50793 7.91229 1.25398 -26.80678 7.33794 -1.37993 31.34975 -109.97882 17.49728 -1.63514 27.00063 -2.36966 -6.87748 -20.06098 -6.22006 -4.1698 -2.78199 32.99296 2.78116 5.50398 -24.01313 -6.5738 2.20976 1.77299
0.00695 0.00022 -0.00364 -170.26448 -27.023 2.26423 43.23634 -0.67355 -9.23392 -12.88954 5.48655 -0.39794 -19.62286 -4.82662 -16.98606 21.77585 95.61656 7.68136 1.124 -26.70991 7.45422 -1.77741 31.20649 -109.21749 17.3036 -1.5191 27.01703 -2.34414 -6.84262 -20.07404 -6.21738 -4.16173 -2.78236 32.99864 2.74129 5.20912 -24.01778 -6.57325 2.25816 1.79844
0.00748 0.00025 -0.00407 -170.32077 -26.98099 2.2539 43.21125 -0.65471 -9.16596 -12.79483 5.50597 -0.39841 -19.66946 -4.99646 -16.49279 21.60214 96.20331 7.83984 1.22028 -26.58848 7.47918 -1.92734 31.02653 -109.67162 17.52729 -1.58726 27.02466 -2.2763 -6.57872 -20.0881 -6.22827 -4.17355 -2.79725 32.99156 2.66747 4.73872 -24.0209 -6.57047 2.33064 1.83648
0.00802 0.00028 -0.0045 -170.37256 -26.943 2.24464 43.18743 -0.63567 -9.10771 -12.70009 5.5232 -0.39886 -19.71759 -5.18251 -15.94942 21.42324 96.24639 7.85136 1.23396 -26.48051 7.53612 -2.15725 30.8703 -109.71849 17.60378 -1.59665 27.03683 -2.22759 -6.41968 -20.10181 -6.23294 -4.17664 -2.8055 32.99066 2.61214 4.36073 -24.02478 -6.56896 2.39039 1.86791
0.00856 0.00031 -0.00492 -170.42095 -26.9029 2.23713 43.16341 -0.61826 -9.04938 -12.59854 5.53915 -0.39932 -19.79739 -5.41375 -15.20637 21.2546 95.77592 7.74244 1.16662 -26.36233 7.63124 -2.51837 30.68404 -109.18149 17.50999 -1.50565 27.04692 -2.17892 -6.25567 -20.11492 -6.23788 -4.17854 -2.81399 32.98826 2.54413 3.92953 -24.02844 -6.56635 2.45777 1.90318
0.0091 0.00033 -0.00535 -170.47831 -26.86517 2.22543 43.13932 -0.59749 -8.98668 -12.51248 5.55818 -0.39978 -19.80831 -5.53781 -14.92039 21.06855 96.69517 7.96981 1.31675 -26.26016 7.6275 -2.55455 30.55187 -110.11571 17.85951 -1.6617 27.05893 -2.12055 -6.04927 -20.12971 -6.24545 -4.18757 -2.82537 32.98577 2.49411 3.56693 -24.03216 -6.5655 2.51492 1.93338
0.00966 0.00035 -0.00578 -170.56528 -26.83758 2.20082 43.11464 -0.56614 -8.91186 -12.46439 5.59209 -0.4002 -19.61774 -5.37124 -15.93459 20.80955 101.34029 9.08685 2.05288 -26.20335 7.3542 -1.69557 30.57643 -115.08911 19.41647 -2.50246 27.08124 -2.0421 -5.76906 -20.14735 -6.25715 -4.21191 -2.8415 32.98785 2.50533 3.44307 -24.03659 -6.57019 2.53806 1.94672
0.01022 0.00036 -0.00621 -170.65891 -26.8123 2.17256 43.09031 -0.53169 -8.83424 -12.43276 5.62713 -0.40062 -19.36201 -5.10071 -17.38401 20.53743 107.28227 10.51733 2.99184 -26.16441 6.98851 -0.52982 30.65728 -121.44583 21.38799 -3.57594 27.10524 -1.95601 -5.45634 -20.1669 -6.27103 -4.24268 -2.86002 32.99003 2.53523 3.39339 -24.04113 -6.57674 2.54995 1.95444
0.01078 0.00038 -0.00664 -170.74502 -26.78484 2.14732 43.06639 -0.49953 -8.76161 -12.39589 5.6569 -0.40105 -19.14636 -4.88373 -18.57404 20.28667 112.47046 11.7684 3.81177 -26.12044 6.67709 0.45798 30.71311 -126.9939 23.11499 -4.51237 27.12664 -1.87589 -5.16723 -20.18666 -6.28369 -4.27012 -2.8772 32.99095 2.55443 3.30535 -24.04551 -6.58235 2.56694 1.9646
